<?xml version="1.0" encoding="utf-8"?><svg version="1.1" id="Layer_1" xmlns="http://www.w3.org/2000/svg" xmlns:xlink="http://www.w3.org/1999/xlink" x="0px" y="0px" viewBox="0 0 95.88 122.88" style="enable-background:new 0 0 95.88 122.88" xml:space="preserve"><style type="text/css">.st0{fill-rule:evenodd;clip-rule:evenodd;}</style><g><path class="st0" d="M47.77,122.88c4.66,0,8.62-2.97,10.1-7.11H94.9v-7.22l-37.03,0c-1.08-3.02-3.47-5.41-6.49-6.49l0-14.13h-7.22 v14.13c-3.02,1.08-5.41,3.47-6.49,6.49l-37.03,0v7.22h37.03C39.15,119.91,43.11,122.88,47.77,122.88L47.77,122.88z M2.6,0h90.68 c1.43,0,2.6,1.17,2.6,2.6v60.07c0,1.43-1.17,2.6-2.6,2.6H2.6c-1.43,0-2.6-1.17-2.6-2.6V2.6C0,1.17,1.17,0,2.6,0L2.6,0L2.6,0z M36.12,68.88h23.64c0.06,4.09,1.74,7.75,6.31,10.64H29.81C33.46,76.87,36.14,73.65,36.12,68.88L36.12,68.88L36.12,68.88z M47.94,56.5c1.85,0,3.35,1.5,3.35,3.35c0,1.85-1.5,3.35-3.35,3.35c-1.85,0-3.35-1.5-3.35-3.35C44.59,58,46.09,56.5,47.94,56.5 L47.94,56.5z M7.84,4.91h80.21c1.27,0,2.31,1.04,2.31,2.3V52.1c0,1.27-1.04,2.3-2.31,2.3H7.84c-1.27,0-2.3-1.04-2.3-2.3V7.21 C5.53,5.94,6.57,4.91,7.84,4.91L7.84,4.91L7.84,4.91z"/></g></svg>