<?xml version="1.0" encoding="utf-8"?><svg version="1.1" id="Layer_1" xmlns="http://www.w3.org/2000/svg" xmlns:xlink="http://www.w3.org/1999/xlink" x="0px" y="0px" viewBox="0 0 122.88 110.35" style="enable-background:new 0 0 122.88 110.35" xml:space="preserve"><style type="text/css">.st0{fill-rule:evenodd;clip-rule:evenodd;}</style><g><path class="st0" d="M73.65,40.96l2.68,2.68c0.71,0.71,0.71,1.86,0,2.57l-2.16,2.16c0.6,1.13,1.05,2.33,1.34,3.57l2.8,0 c1,0,1.81,0.82,1.81,1.81v3.79c0,1-0.82,1.81-1.81,1.81h-3.05c-0.37,1.22-0.9,2.39-1.58,3.47l1.98,1.98c0.71,0.71,0.71,1.86,0,2.57 l-2.68,2.68c-0.71,0.71-1.86,0.71-2.57,0l-2.16-2.16c-1.13,0.6-2.33,1.06-3.57,1.34v2.8c0,1-0.82,1.81-1.81,1.81l-3.79,0 c-1,0-1.81-0.82-1.81-1.81v-3.05c-1.22-0.37-2.39-0.9-3.47-1.58l-1.98,1.98c-0.71,0.71-1.86,0.71-2.57,0l-2.68-2.68 c-0.71-0.71-0.71-1.86,0-2.57l2.16-2.16c-0.6-1.13-1.06-2.33-1.34-3.57l-2.8,0c-1,0-1.81-0.82-1.81-1.81V52.8 c0-1,0.82-1.81,1.81-1.81h3.05c0.37-1.22,0.9-2.39,1.58-3.47l-1.98-1.98c-0.71-0.71-0.71-1.86,0-2.57l2.68-2.68 c0.71-0.71,1.86-0.71,2.57,0l2.16,2.16c1.11-0.6,2.31-1.05,3.57-1.34v-2.8c0-1,0.82-1.81,1.81-1.81h3.79c1,0,1.81,0.82,1.81,1.81 v3.05c1.22,0.37,2.39,0.9,3.47,1.58l1.98-1.98C71.79,40.26,72.94,40.26,73.65,40.96L73.65,40.96L73.65,40.96z M6.32,0v6.22h12.22V0 h6.32v14.88h73.15V0h6.32v6.22h12.22V0h6.32v110.35h-6.32v-7.19h-12.22v7.19h-6.32V94.79H24.87v15.56h-6.32v-7.19H6.32v7.19H0V0 H6.32L6.32,0z M98.01,21.2H24.87v67.27h73.15V21.2L98.01,21.2z M116.56,96.84v-11.8h-12.22v11.8H116.56L116.56,96.84z M116.56,78.72v-11.8h-12.22v11.8H116.56L116.56,78.72z M116.56,60.59v-11.8h-12.22v11.8H116.56L116.56,60.59z M116.56,42.47v-11.8 h-12.22v11.8H116.56L116.56,42.47z M116.56,24.35v-11.8h-12.22v11.8H116.56L116.56,24.35z M18.54,96.84v-11.8H6.32v11.8H18.54 L18.54,96.84z M18.54,78.72v-11.8H6.32v11.8H18.54L18.54,78.72z M18.54,60.59v-11.8H6.32v11.8H18.54L18.54,60.59z M18.54,42.47 v-11.8H6.32v11.8H18.54L18.54,42.47z M18.54,24.35v-11.8H6.32v11.8H18.54L18.54,24.35z M61.44,47.72c4.12,0,7.45,3.34,7.45,7.45 c0,4.12-3.34,7.45-7.45,7.45c-4.12,0-7.45-3.34-7.45-7.45C53.99,51.06,57.32,47.72,61.44,47.72L61.44,47.72z"/></g></svg>