<?xml version="1.0" encoding="utf-8"?><svg version="1.1" id="Layer_1" xmlns="http://www.w3.org/2000/svg" xmlns:xlink="http://www.w3.org/1999/xlink" x="0px" y="0px" viewBox="0 0 112.58 120" style="enable-background:new 0 0 112.58 120" xml:space="preserve"><style type="text/css">.st0{fill-rule:evenodd;clip-rule:evenodd;}</style><g><path class="st0" d="M24.78,55.66h63.36v-19.2H67.96c-2.11,0-5.07-1.15-6.46-2.54c-1.39-1.39-2.25-3.91-2.25-6.03V7.46H7.96 c-0.18,0-0.31,0.09-0.41,0.18c-0.13,0.09-0.18,0.22-0.18,0.4V112c0,0.13,0.09,0.31,0.18,0.4c0.09,0.13,0.27,0.18,0.41,0.18l79.6,0 c0.18,0,0.17-0.09,0.26-0.18c0.13-0.09,0.33-0.27,0.33-0.4v-10.9H24.78c-4.05,0-7.38-3.32-7.38-7.38V63.04 C17.4,58.98,20.72,55.66,24.78,55.66L24.78,55.66L24.78,55.66z M47.88,79.9l6.58,1.98c-0.44,1.84-1.14,3.38-2.09,4.62 c-0.95,1.24-2.12,2.17-3.54,2.8c-1.41,0.63-3.2,0.94-5.37,0.94c-2.64,0-4.8-0.38-6.48-1.15c-1.67-0.77-3.11-2.12-4.33-4.05 c-1.21-1.93-1.82-4.4-1.82-7.41c0-4.01,1.07-7.1,3.2-9.25c2.14-2.15,5.16-3.23,9.07-3.23c3.06,0,5.46,0.62,7.22,1.85 c1.75,1.24,3.05,3.14,3.9,5.7l-6.61,1.46c-0.23-0.73-0.47-1.27-0.73-1.61c-0.42-0.57-0.94-1.01-1.54-1.32 c-0.61-0.31-1.29-0.46-2.04-0.46c-1.71,0-3.01,0.68-3.92,2.05c-0.68,1.01-1.03,2.6-1.03,4.77c0,2.69,0.41,4.53,1.23,5.53 c0.82,0.99,1.97,1.49,3.45,1.49c1.44,0,2.52-0.4,3.25-1.21C47.02,82.6,47.55,81.43,47.88,79.9L47.88,79.9z M57.71,75.05h6.34v-6.37 h5.36v6.37h6.37v5.36H69.4v6.34h-5.36v-6.34h-6.34V75.05L57.71,75.05z M80.09,75.05h6.34v-6.37h5.36v6.37h6.37v5.36h-6.37v6.34 h-5.36v-6.34h-6.34V75.05L80.09,75.05z M95.5,55.66h9.7c4.06,0,7.38,3.33,7.38,7.38v30.68c0,4.05-3.33,7.38-7.38,7.38h-9.7v13.23 c0,1.57-0.63,2.97-1.66,4c-1.03,1.03-2.43,1.66-4,1.66l-84.16,0c-1.57,0-2.97-0.63-4-1.66c-1.03-1.03-1.66-2.43-1.66-4V5.71 c0-1.57,0.63-2.97,1.66-4c1.03-1.03,2.47-1.66,4-1.66h57.34C63.15,0,63.28,0,63.42,0c0.63,0,1.26,0.27,1.71,0.67h0.09 c0.09,0.05,0.13,0.09,0.22,0.18l29.29,29.65c0.49,0.49,0.85,1.17,0.85,1.93c0,0.23-0.04,0.41-0.09,0.63L95.5,55.66L95.5,55.66 L95.5,55.66z M65.94,27.31V8.73l20.92,21.19H68.55c-0.72,0-1.35-0.31-1.85-0.76C66.25,28.71,65.94,28.03,65.94,27.31L65.94,27.31z"/></g></svg>