<?xml version="1.0" encoding="utf-8"?><svg version="1.1" id="Layer_1" xmlns="http://www.w3.org/2000/svg" xmlns:xlink="http://www.w3.org/1999/xlink" x="0px" y="0px" viewBox="0 0 90.46 122.88" style="enable-background:new 0 0 90.46 122.88" xml:space="preserve"><style type="text/css">.st0{fill-rule:evenodd;clip-rule:evenodd;}</style><g><path class="st0" d="M7.64,107.6c4.22,0,7.64,3.42,7.64,7.64c0,4.22-3.42,7.64-7.64,7.64c-4.22,0-7.64-3.42-7.64-7.64 C0,111.02,3.42,107.6,7.64,107.6L7.64,107.6z M5.36,0H85.1c1.26,0,2.29,1.03,2.29,2.29v50.3c0,1.26-1.03,2.29-2.29,2.29H5.36 c-1.26,0-2.29-1.03-2.29-2.29V2.29C3.06,1.03,4.1,0,5.36,0L5.36,0L5.36,0z M34.83,58.05h20.79c0.06,3.6,1.53,6.82,5.55,9.36h-31.9 C32.49,65.08,34.85,62.25,34.83,58.05L34.83,58.05L34.83,58.05z M45.23,47.16c1.62,0,2.94,1.32,2.94,2.95 c0,1.62-1.32,2.94-2.94,2.94c-1.62,0-2.95-1.32-2.95-2.94C42.28,48.48,43.61,47.16,45.23,47.16L45.23,47.16z M9.96,4.32H80.5 c1.12,0,2.03,0.91,2.03,2.03v36.95c0,1.11-0.91,2.03-2.03,2.03H9.96c-1.11,0-2.03-0.91-2.03-2.03V6.34 C7.93,5.23,8.84,4.32,9.96,4.32L9.96,4.32L9.96,4.32z M41.26,92.48H11.05v8.84c0,1.88-1.53,3.41-3.41,3.41 c-1.88,0-3.41-1.52-3.41-3.41V90.09c0-0.17,0.01-0.34,0.04-0.51c-0.02-0.17-0.04-0.34-0.04-0.51c0-1.88,1.52-3.41,3.41-3.41h33.44 c-0.03-2.49-0.06-7.01-0.09-9.33h8.27c0.09,2.56,0.16,7.12,0.19,9.33h33.36c1.88,0,3.41,1.53,3.41,3.41c0,0.17-0.01,0.34-0.04,0.51 c0.03,0.17,0.04,0.34,0.04,0.51v11.23c0,1.88-1.53,3.41-3.41,3.41s-3.41-1.52-3.41-3.41v-8.84H49.44v7.75 c0,2.26-1.83,4.09-4.09,4.09c-2.26,0-4.09-1.83-4.09-4.09L41.26,92.48L41.26,92.48L41.26,92.48z M82.82,107.6 c4.22,0,7.64,3.42,7.64,7.64c0,4.22-3.42,7.64-7.64,7.64c-4.22,0-7.64-3.42-7.64-7.64C75.18,111.02,78.6,107.6,82.82,107.6 L82.82,107.6z M45.1,107.6c4.22,0,7.64,3.42,7.64,7.64c0,4.22-3.42,7.64-7.64,7.64c-4.22,0-7.64-3.42-7.64-7.64 C37.46,111.02,40.88,107.6,45.1,107.6L45.1,107.6z"/></g></svg>